<?xml version="1.0" encoding="iso-8859-1"?>
<!-- Generator: Adobe Illustrator 19.0.0, SVG Export Plug-In . SVG Version: 6.00 Build 0)  -->
<svg version="1.1" id="Layer_1" xmlns="http://www.w3.org/2000/svg" xmlns:xlink="http://www.w3.org/1999/xlink" x="0px" y="0px"
	 viewBox="0 0 512 512" style="enable-background:new 0 0 512 512;" xml:space="preserve">
<rect x="211.601" y="397.834" style="fill:#AA8B65;" width="90.253" height="114.168"/>
<polygon style="fill:#33A854;" points="267.264,27.278 251.447,0 138.514,194.751 175.454,194.751 110.945,305.996 151.69,305.996 
	90.031,412.327 412.862,412.327 351.203,305.996 391.949,305.996 327.439,194.751 364.379,194.751 331.543,138.125"/>
<g>
	<polygon style="opacity:0.33;fill:#278243;enable-background:new;" points="350.293,305.996 391.039,305.996 326.529,194.751 
		363.469,194.751 330.634,138.125 266.355,27.278 250.537,0 235.291,26.292 280.551,104.343 313.387,160.968 276.446,160.968 
		340.956,272.213 300.211,272.213 361.87,378.544 108.711,378.544 89.121,412.327 411.952,412.327"/>
	<path style="fill:#278243;" d="M147.671,412.327l57.753-99.632h-27.162c-2.798,0-5.384-1.494-6.781-3.919
		c-1.397-2.425-1.392-5.411,0.011-7.832l57.695-99.494h-23.357c-2.798,0-5.384-1.494-6.781-3.919
		c-1.397-2.425-1.392-5.411,0.011-7.832l28.923-49.875c2.169-3.738,6.957-5.012,10.696-2.844s5.012,6.956,2.844,10.695
		L219.417,185.8h23.356c2.798,0,5.384,1.494,6.781,3.919s1.393,5.411-0.011,7.832l-57.695,99.494h27.162
		c2.798,0,5.384,1.494,6.781,3.919c1.397,2.425,1.392,5.411-0.011,7.832l-60.015,103.532H147.671z"/>
</g>
<g>
	<path style="fill:#836948;" d="M242.711,494.768c-4.323,0-7.825-3.504-7.825-7.825v-22.409c0-4.322,3.503-7.825,7.825-7.825
		s7.825,3.504,7.825,7.825v22.409C250.537,491.265,247.034,494.768,242.711,494.768z"/>
	<path style="fill:#836948;" d="M271.136,468.472c-4.323,0-7.825-3.504-7.825-7.825v-26.838c0-4.322,3.503-7.825,7.825-7.825
		s7.825,3.504,7.825,7.825v26.838C278.962,464.968,275.459,468.472,271.136,468.472z"/>
	<path style="fill:#836948;" d="M271.136,494.768c-4.323,0-7.825-3.504-7.825-7.825v-8.232c0-4.322,3.503-7.825,7.825-7.825
		s7.825,3.504,7.825,7.825v8.232C278.962,491.265,275.459,494.768,271.136,494.768z"/>
	<path style="fill:#836948;" d="M242.711,450.865c-4.323,0-7.825-3.504-7.825-7.825v-9.231c0-4.322,3.503-7.825,7.825-7.825
		s7.825,3.504,7.825,7.825v9.231C250.537,447.361,247.034,450.865,242.711,450.865z"/>
</g>
<path style="fill:#DFDFE2;" d="M267.802,28.204v-1.243c0-9.152,11.433-13.306,17.309-6.29l40.52,48.391
	c4.146,4.951,6.418,11.203,6.418,17.661v51.106h-25.113c-5.919,0-10.717,4.799-10.717,10.717v9.624
	c0,7.847-6.362,14.209-14.209,14.209l0,0c-7.847,0-14.209-6.362-14.209-14.209V28.204H267.802z"/>
<path style="fill:#C6C3CB;" d="M325.631,69.063l-2.691-3.214v28.551c0,10.155-8.232,18.389-18.389,18.389h-6.725
	c-5.919,0-10.717,4.799-10.717,10.717v9.625c0,7.847-6.362,14.209-14.209,14.209l0,0c-1.8,0-3.515-0.348-5.1-0.959v11.391
	c0,7.651,5.88,14.234,13.522,14.594c8.159,0.384,14.895-6.117,14.895-14.192v-9.624c0-5.919,4.799-10.717,10.717-10.717h25.113
	V86.728C332.049,80.267,329.777,74.015,325.631,69.063z"/>
<g>
	<path style="fill:#DFDFE2;" d="M0.37,433.809v77.452h167.034v-8.755c0-16.552-13.418-29.97-29.97-29.97h-18.186
		c-5.815,0-10.529-4.714-10.529-10.529l0,0c0-11.837-9.596-21.432-21.432-21.432H62.928c-7.584,0-13.734-6.149-13.734-13.734l0,0
		c0-13.483-10.93-24.412-24.412-24.412l0,0c-13.483,0-24.412,10.93-24.412,24.412v6.969H0.37z"/>
	<path style="fill:#DFDFE2;" d="M511.632,433.809v77.452H344.597v-8.755c0-16.552,13.418-29.97,29.97-29.97h18.186
		c5.815,0,10.529-4.714,10.529-10.529l0,0c0-11.837,9.596-21.432,21.432-21.432h24.358c7.584,0,13.734-6.149,13.734-13.734l0,0
		c0-13.483,10.93-24.412,24.412-24.412l0,0c13.483,0,24.412,10.93,24.412,24.412V433.809z"/>
</g>
<g>
	<path style="opacity:0.2;fill:#77757E;enable-background:new;" d="M491.59,402.825c0.257,1.419,0.398,2.878,0.398,4.37v6.97
		v43.365c0,18.826-15.262,34.088-34.088,34.088H346.647c-1.318,3.376-2.048,7.046-2.048,10.889v8.755h167.034v-77.452v-6.97
		C511.632,414.85,502.985,404.887,491.59,402.825z"/>
	<path style="opacity:0.2;fill:#77757E;enable-background:new;" d="M21.21,402.825c-0.257,1.419-0.398,2.878-0.398,4.37v6.97
		v43.365c0,18.826,15.262,34.088,34.088,34.088h111.255c1.318,3.376,2.048,7.046,2.048,10.889v8.755H1.169v-77.452v-6.97
		C1.169,414.85,9.815,404.887,21.21,402.825z"/>
</g>
<rect x="211.601" y="412.327" style="opacity:0.4;fill:#836948;enable-background:new;" width="90.253" height="27.494"/>
</svg>
